<?xml version="1.0" encoding="UTF-8"?><svg id="Layer_2" xmlns="http://www.w3.org/2000/svg" viewBox="0 0 1566.77 654.78"><defs><style>.cls-1{fill:#5fcc26;}</style></defs><g id="Layer_1-2"><path d="M0,609.98l41.04-193.64h35.84c6.74,0,11.85,1.26,15.32,3.76,3.47,2.51,6.45,7.04,8.96,13.58l39.88,104.05,25.72-121.39h53.47l-41.04,193.64h-35.84c-6.94,0-12.14-1.3-15.61-3.9-3.47-2.6-6.46-7.08-8.96-13.44l-39.88-103.47-25.43,120.81H0Z"/><path d="M235.84,459.7h50.29l-25.14,118.5h36.71c4.81,0,7.61-2.21,8.38-6.65l23.7-111.85h50.29l-27.75,130.35c-1.54,6.75-4.44,11.75-8.67,15.03-4.24,3.28-10.31,4.91-18.21,4.91h-121.39l31.79-150.29Z"/><path d="M495.96,491.49h-50.29l-18.5,86.71h26.88l9.25-43.06h.58l35.26,25.14c2.12,1.54,3.42,2.99,3.9,4.33.48,1.35.43,3.37-.14,6.07l-8.38,39.31h-124.28l45.95-216.76h.58l34.39,24.57c5.97,4.24,8.09,10.31,6.36,18.21l-4.91,23.7h60.4l-4.91,23.12c-1.16,5.78-5.2,8.67-12.14,8.67Z"/><path d="M669.65,459.7l-17.92,84.39h-.58l-35.26-25.14c-3.47-2.5-4.72-5.97-3.76-10.4l3.76-17.05h-24.28c-4.82,0-7.61,2.22-8.38,6.65l-23.7,111.85h-50.29l27.75-130.35c1.54-6.74,4.43-11.75,8.67-15.03,4.24-3.27,10.31-4.91,18.21-4.91h105.78Z"/><path d="M694.8,654.78h-.58l-34.39-24.57c-3.28-2.31-5.35-4.91-6.21-7.8-.87-2.89-.82-6.46.14-10.69l32.37-152.02h50.29l-41.62,195.09ZM741.33,435.71c-1.16,5.78-5.2,8.67-12.14,8.67h-39.88l5.78-28.04c1.16-5.78,5.2-8.67,12.14-8.67h40.17l-6.07,28.04Z"/><path class="cls-1" d="M904.63,509.98c8.28.77,14.5,4.1,18.64,9.97,4.14,5.88,5.35,12.96,3.61,21.24l-8.67,40.46c-4.05,18.89-15.71,28.32-34.97,28.32h-153.76l41.04-193.64h174.86l-14.74,69.37c-1.54,7.9-4.33,13.68-8.38,17.34-4.05,3.66-9.93,5.78-17.63,6.36v.58ZM858.09,572.41c3.27,0,5.68-.67,7.23-2.02,1.54-1.35,2.6-3.37,3.18-6.07l6.07-28.61c.58-2.7.24-4.77-1.01-6.21-1.26-1.44-3.23-2.17-5.92-2.17h-67.34l-9.54,45.09h67.34ZM867.34,492.64c5.78,0,9.25-2.89,10.4-8.67l6.36-30.06h-68.21l-8.09,38.73h59.54Z"/><path d="M1027.75,578.19c2.12,0,3.61-.29,4.48-.87s1.49-1.83,1.88-3.76l1.45-6.94c.58-2.5,1.3-4.14,2.17-4.91.87-.77,2.55-1.54,5.06-2.31l46.53-12.43h.58l-9.25,43.64c-1.54,6.75-4.39,11.66-8.53,14.74-4.15,3.08-10.17,4.62-18.06,4.62h-121.39l27.75-130.35c1.54-6.74,4.43-11.75,8.67-15.03,4.24-3.27,10.31-4.91,18.21-4.91h121.1l-12.43,58.38c-.97,4.62-2.51,8.14-4.62,10.55-2.12,2.41-5.3,4.19-9.54,5.35l-87.86,23.41-4.33,20.81h38.15ZM1001.16,524.15l41.33-10.98c3.08-.77,4.91-2.6,5.49-5.49l3.47-16.19h-36.71c-4.43,0-7.04,2.02-7.8,6.07l-5.78,26.59Z"/><path d="M1177.75,491.49c-2.12,0-3.61.29-4.48.87s-1.5,1.83-1.88,3.76l-1.45,6.94c-.58,2.51-1.3,4.15-2.17,4.91-.87.77-2.56,1.54-5.06,2.31l-46.53,12.43h-.58l9.25-43.64c1.54-6.74,4.38-11.65,8.53-14.74,4.14-3.08,10.16-4.62,18.06-4.62h121.39l-27.75,130.35c-1.54,6.75-4.44,11.75-8.67,15.03-4.24,3.28-10.31,4.91-18.21,4.91h-121.1l12.43-58.38c.96-4.62,2.5-8.14,4.62-10.55,2.12-2.41,5.3-4.19,9.54-5.35l87.86-23.41,4.33-20.81h-38.15ZM1154.05,578.19h36.71c4.43,0,7.03-2.02,7.8-6.07l5.78-26.59-41.33,10.98c-3.08.77-4.91,2.6-5.49,5.49l-3.47,16.18Z"/><path d="M1318.21,564.9l-2.89,13.29h43.06l.58-2.89c.38-2.31.33-4.14-.14-5.49-.48-1.35-1.59-2.7-3.32-4.05l-57.51-41.04c-5.59-3.85-9.25-8.28-10.98-13.29-1.73-5.01-1.83-11.17-.29-18.5l2.31-10.98c1.54-6.94,4.52-12.38,8.96-16.33,4.43-3.95,10.31-5.92,17.63-5.92h117.05l-17.05,79.77h-.58l-35.26-25.14c-2.12-1.54-3.42-2.99-3.9-4.33-.48-1.35-.43-3.37.14-6.07l2.6-12.43h-41.33l-.58,2.89c-.39,2.31-.34,4.15.14,5.49.48,1.35,1.59,2.7,3.32,4.04l57.51,41.04c5.59,3.86,9.25,8.29,10.98,13.29,1.73,5.01,1.83,11.18.29,18.5l-2.31,10.98c-1.54,6.94-4.53,12.38-8.96,16.33-4.43,3.95-10.31,5.92-17.63,5.92h-118.79l.29-.29,17.05-80.35h.58l35.26,25.15c2.12,1.54,3.42,2.99,3.9,4.33.48,1.35.43,3.37-.14,6.07Z"/><path d="M1549.71,491.49h-50.29l-18.5,86.71h26.88l9.25-43.06h.58l35.26,25.14c2.12,1.54,3.42,2.99,3.9,4.33.48,1.35.43,3.37-.14,6.07l-8.38,39.31h-124.28l45.95-216.76h.58l34.39,24.57c5.97,4.24,8.09,10.31,6.36,18.21l-4.91,23.7h60.4l-4.91,23.12c-1.16,5.78-5.2,8.67-12.14,8.67Z"/><polygon class="cls-1" points="984.04 0 829.61 143.81 919.21 217.97 589.83 352.38 744.26 208.57 654.66 134.41 984.04 0"/><path d="M670.01,160.1l-11.85,55.91-64.4-167.99c-7.94-21-17.27-28-39.2-28h-57.87l-66.26,312.66h86.33l41.06-195.06s65.15,168.95,65.53,169.86l105.76-98.47-59.1-48.91ZM664.57,332.68h55.2l5.23-24.66-60.43,24.66ZM699.7,20.02l-19.76,93.27,94.5-38.56,11.59-54.71h-86.33Z"/><path d="M837.82,20.02l-6.69,31.57,77.38-31.57h-70.69ZM1096.34,132.02l23.8-112h-142.95l-65.14,60.66h109.16l-10.27,48.54c-1.86,9.33-7,14-16.8,14h-96.13l12.84-61.42-66.11,61.56,67.49,55.85h82.38c8.4,0,13.07,5.14,11.2,13.54l-9.8,46.2c-1.87,8.86-6.53,13.06-16.8,13.06h-108.73l5.41-25.58-94.21,38.45-10.13,47.8h248.26c30.33,0,49.93-15.87,56.47-45.73l13.99-65.34c5.6-26.59-9.33-48.06-35.93-50.39v-.94c24.73-1.86,36.87-13.06,42-38.26Z"/></g></svg>