<?xml version="1.0" encoding="UTF-8"?>
<svg id="b" xmlns="http://www.w3.org/2000/svg" xmlns:xlink="http://www.w3.org/1999/xlink" version="1.1" viewBox="0 0 457.8 264.6">
  <!-- Generator: Adobe Illustrator 29.3.1, SVG Export Plug-In . SVG Version: 2.1.0 Build 151)  -->
  <defs>
    <style>
      .st0 {
        fill: url(#linear-gradient);
      }

      .st1 {
        fill: #0f86e8;
      }

      .st2 {
        fill: #fff;
      }

      .st3 {
        fill: #0f84e6;
      }
    </style>
    <linearGradient id="linear-gradient" x1="168.3" y1="238.5" x2="168.3" y2="200.3" gradientTransform="translate(0 266) scale(1 -1)" gradientUnits="userSpaceOnUse">
      <stop offset="0" stop-color="#094e87"/>
      <stop offset="1" stop-color="#0f84e6"/>
    </linearGradient>
  </defs>
  <g id="c">
    <path class="st1" d="M40.4,162.9c4.7-6.4,11.9-10.1,19.9-10.1h9.1c7.9,0,15.2,3.7,19.8,10.1l40.2,55.5c.3.4.3.8,0,1.2-.2.4-.6.6-1,.6h-17.4c-.4,0-.7-.2-.9-.5l-35.7-49.1c-1.6-2.2-3.9-3.4-6.6-3.4h-6.2c-2.7,0-5,1.2-6.6,3.4l-35.7,49.1c-.2.3-.5.5-.9.5H1.1c-.4,0-.8-.2-1-.6-.2-.4-.2-.8,0-1.2l40.2-55.4h0Z"/>
    <path class="st1" d="M147.5,167.1h-36.6c-.6,0-1.2-.5-1.2-1.1v-12.1c0-.6.5-1.1,1.2-1.1h91.7c.6,0,1.1.5,1.1,1.1v12.1c0,.6-.5,1.1-1.1,1.1h-37.7v51.9c0,.6-.5,1.1-1.1,1.1h-14.1c-.6,0-1.1-.5-1.1-1.1v-51.9h-1.1Z"/>
    <path class="st1" d="M250.6,198.8v-12.1c0-.6.5-1.1,1.1-1.1h37.4c2.7,0,4.8-2.2,4.8-4.8v-8.8c0-2.7-2.2-4.8-4.8-4.8h-54.9v51.9c0,.6-.5,1.1-1.1,1.1h-14.1c-.6,0-1.1-.5-1.1-1.1v-65.1c0-.6.5-1.1,1.1-1.1h74.5c9.3,0,16.9,7.6,16.9,16.9v13.5c0,7.1-4.6,13.5-11.3,15.9-.7.2-1.3.4-2,.6l-.8.2,2.5,3c1.8,2,4.1,3,6.8,3h3.7c.6,0,1.1.5,1.1,1.1v12.1c0,.6-.5,1.1-1.1,1.1h-9.5c-5,0-9.3-1.9-12.6-5.6,0,0,0,0,0,0l-8.5-10.1h0s0,0,0-.1l-1.4-1.7h0c0,0-.1-.1-.2-.2-1.7-1.7-3.9-2.5-6.3-2.5h-18.9c-.6,0-1.1-.5-1.1-1.1h0Z"/>
    <path class="st1" d="M325.4,152.7h14.1c.6,0,1.1.5,1.1,1.1v65.1c0,.6-.5,1.1-1.1,1.1h-14.1c-.6,0-1.1-.5-1.1-1.1v-65.1c0-.6.5-1.1,1.1-1.1Z"/>
    <path class="st1" d="M354.7,153.9c0-.6.5-1.1,1.1-1.1h9.5c5.1,0,9.6,2,12.9,6l9.7,11.6h0c0,0,.1.1.2.2l5.1,6.1h0c0,0,.1.1.2.2,1.7,1.6,3.8,2.5,6.2,2.5h13.1c2.4,0,4.5-.9,6.2-2.5,0,0,.1,0,.2-.1h0s5.1-6.1,5.1-6.1c0,0,.1-.1.2-.2h0s9.7-11.6,9.7-11.6c3.3-3.9,7.7-6,12.9-6h9.5c.6,0,1.1.5,1.1,1.1v12.1c0,.6-.5,1.1-1.1,1.1h-3.7c-2.6,0-5,1-6.8,3l-13.8,16.3,13.8,16.3c1.8,2,4.1,3,6.8,3h3.7c.6,0,1.1.5,1.1,1.1v12.1c0,.6-.5,1.1-1.1,1.1h-9.5c-5.1,0-9.6-2-12.9-6l-9.7-11.6h0c0,0-.1-.1-.2-.2l-5.1-6.1h0c0,0-.1-.1-.2-.2-1.7-1.6-3.8-2.5-6.2-2.5h-13.1c-2.4,0-4.5.9-6.2,2.5,0,0-.1,0-.2.1h0s-5.1,6.1-5.1,6.1c0,0-.1.1-.2.2h0s-9.7,11.6-9.7,11.6c-3.3,3.9-7.7,6-12.9,6h-9.5c-.6,0-1.1-.5-1.1-1.1v-12.1c0-.6.5-1.1,1.1-1.1h3.7c2.6,0,5-1,6.8-3l13.8-16.3-13.8-16.3c-1.8-2-4.1-3-6.8-3h-3.7c-.6,0-1.1-.5-1.1-1.1v-12.1Z"/>
    <path class="st2" d="M68.4,240.3h6.6v23.8h-6.6v-23.8Z"/>
    <path class="st2" d="M92,246.1h-7.1v-5.8h20.8v5.8h-7.1v18h-6.6v-18h0Z"/>
    <path class="st2" d="M130.6,260.6l3.7-4.4c2.4,1.9,5,2.9,7.7,2.9s2.8-.6,2.8-1.6h0c0-1.1-.8-1.6-4-2.4-5-1.2-9-2.6-9-7.4h0c0-4.5,3.5-7.7,9.2-7.7s7.2,1.1,9.8,3.2l-3.3,4.7c-2.2-1.6-4.5-2.4-6.7-2.4s-2.4.6-2.4,1.5h0c0,1.1.8,1.7,4.1,2.4,5.4,1.2,8.8,3,8.8,7.4h0c0,4.9-3.8,7.8-9.6,7.8s-8.2-1.3-11.1-3.9h0Z"/>
    <path class="st2" d="M160.5,252.3h0c0-6.9,5.5-12.4,12.9-12.4s12.8,5.5,12.8,12.3h0c0,6.9-5.5,12.4-12.9,12.4s-12.8-5.5-12.8-12.3h0ZM179.4,252.3h0c0-3.5-2.4-6.5-6.1-6.5s-6.1,2.9-6.1,6.4h0c0,3.5,2.5,6.5,6.1,6.5s6-2.9,6-6.4h0Z"/>
    <path class="st2" d="M196.3,240.3h6.6v18h11.5v5.8h-18.1v-23.8h0Z"/>
    <path class="st2" d="M223.1,253.7v-13.4h6.7v13.2c0,3.4,1.7,5.1,4.4,5.1s4.4-1.5,4.4-4.9v-13.4h6.7v13.2c0,7.6-4.4,11-11.1,11s-11-3.4-11-10.9h0Z"/>
    <path class="st2" d="M261.8,246.1h-7.1v-5.8h20.8v5.8h-7.1v18h-6.6v-18h0Z"/>
    <path class="st2" d="M285.3,240.3h6.6v23.8h-6.6v-23.8Z"/>
    <path class="st2" d="M302.3,252.3h0c0-6.9,5.5-12.4,12.9-12.4s12.8,5.5,12.8,12.3h0c0,6.9-5.5,12.4-12.9,12.4s-12.8-5.5-12.8-12.3h0ZM321.2,252.3h0c0-3.5-2.5-6.5-6.1-6.5s-6,2.9-6,6.4h0c0,3.5,2.5,6.5,6.1,6.5s6-2.9,6-6.4h0Z"/>
    <path class="st2" d="M338.1,240.3h6.1l9.8,12.6v-12.6h6.5v23.8h-5.8l-10.2-13.1v13.1h-6.5v-23.8h0Z"/>
    <path class="st2" d="M369.8,260.6l3.7-4.4c2.4,1.9,5,2.9,7.7,2.9s2.8-.6,2.8-1.6h0c0-1.1-.8-1.6-4-2.4-5-1.2-9-2.6-9-7.4h0c0-4.5,3.5-7.7,9.2-7.7s7.2,1.1,9.8,3.2l-3.3,4.7c-2.2-1.6-4.5-2.4-6.7-2.4s-2.4.6-2.4,1.5h0c0,1.1.8,1.7,4.1,2.4,5.4,1.2,8.8,3,8.8,7.4h0c0,4.9-3.8,7.8-9.6,7.8s-8.2-1.3-11.1-3.9h0Z"/>
    <path class="st3" d="M331.8,57.8v72.2l-119.8-96.5c-3.9-3.2-9.2-3.3-13.9-1.2-1.5.7-2.9,1.5-4.3,2.4-3.8,2.5-6.5,6.4-6.5,11v70.2c0,1.4-1.1,2.6-2.6,2.6h-56.2c-.8,0-1.6-.4-2-1-.3-.4-.5-1-.5-1.5v-31.8c0-15.3,7.7-29.5,20.5-37.9,24.6-16.2,49.6-30.5,75.7-41.8,17.2-7.4,37.1-4.8,51.7,6.9l57.9,46.7h0Z"/>
    <path class="st0" d="M210.5,32.4c-3.7-2.2-8.3-2.1-12.4-.2-1.5.7-2.9,1.5-4.3,2.4-3.8,2.5-6.5,6.4-6.5,11v70.2c0,1.4-1.1,2.6-2.6,2.6h-56.2c-.8,0-1.6-.4-2-1-.3-.4-.5-1-.5-1.5v-31.8c0-15.3,7.7-29.5,20.5-37.9,1.4-.9,2.7-1.8,4.1-2.7,10.7-5.4,21.3-8.9,25.8-10.8,9.2-3.9,25.4-7.1,34.1,0Z"/>
  </g>
</svg>