<?xml version="1.0" encoding="UTF-8"?>
<svg id="b" xmlns="http://www.w3.org/2000/svg" xmlns:xlink="http://www.w3.org/1999/xlink" version="1.1" viewBox="0 0 457.8 264.6">
  <!-- Generator: Adobe Illustrator 29.7.1, SVG Export Plug-In . SVG Version: 2.1.1 Build 8)  -->
  <defs>
    <style>
      .st0 {
        fill: url(#linear-gradient);
      }

      .st1 {
        fill: #fff;
      }
    </style>
    <linearGradient id="linear-gradient" x1="168.3" y1="238.5" x2="168.3" y2="200.3" gradientTransform="translate(0 266) scale(1 -1)" gradientUnits="userSpaceOnUse">
      <stop offset="0" stop-color="#878787"/>
      <stop offset="1" stop-color="#fff"/>
    </linearGradient>
  </defs>
  <path class="st1" d="M331.8,57.8v72.2l-119.8-96.5c-3.9-3.2-9.2-3.3-13.9-1.2-1.5.7-2.9,1.5-4.3,2.4-3.8,2.5-6.5,6.4-6.5,11v70.2c0,1.4-1.1,2.6-2.6,2.6h-56.2c-.8,0-1.6-.4-2-1-.3-.4-.5-1-.5-1.5v-31.8c0-15.3,7.7-29.5,20.5-37.9,24.6-16.2,49.6-30.5,75.7-41.8,17.2-7.4,37.1-4.8,51.7,6.9l57.9,46.7h0Z"/>
  <path class="st0" d="M210.5,32.4c-3.7-2.2-8.3-2.1-12.4-.2-1.5.7-2.9,1.5-4.3,2.4-3.8,2.5-6.5,6.4-6.5,11v70.2c0,1.4-1.1,2.6-2.6,2.6h-56.2c-.8,0-1.6-.4-2-1-.3-.4-.5-1-.5-1.5v-31.8c0-15.3,7.7-29.5,20.5-37.9,1.4-.9,2.7-1.8,4.1-2.7,10.7-5.4,21.3-8.9,25.8-10.8,9.2-3.9,25.4-7.1,34.1,0Z"/>
</svg>