<?xml version="1.0" encoding="UTF-8"?><svg id="b" xmlns="http://www.w3.org/2000/svg" xmlns:xlink="http://www.w3.org/1999/xlink" viewBox="0 0 205.77 129.96"><defs><linearGradient id="d" x1="42.26" y1="27.48" x2="42.26" y2="65.7" gradientUnits="userSpaceOnUse"><stop offset="0" stop-color="#878787"/><stop offset="1" stop-color="#fff"/></linearGradient></defs><g id="c"><path d="M205.77,57.78v72.18L85.99,33.43c-3.95-3.19-9.24-3.32-13.86-1.22-1.51.69-2.92,1.47-4.32,2.38-3.83,2.46-6.48,6.39-6.48,10.95v70.2c0,1.42-1.15,2.55-2.55,2.55H2.57c-.84,0-1.58-.4-2.04-1.02-.34-.43-.53-.96-.53-1.53v-31.85c0-15.29,7.75-29.51,20.51-37.93C45.11,29.71,70.07,15.43,96.18,4.17c17.21-7.42,37.08-4.83,51.66,6.92l57.92,46.69Z" fill="#fff"/><path d="M84.52,32.43c-3.73-2.18-8.33-2.07-12.39-.22-1.51.69-2.92,1.47-4.33,2.38-3.83,2.46-6.48,6.39-6.48,10.95v70.19c0,1.42-1.15,2.56-2.55,2.56H2.56c-.84,0-1.58-.4-2.03-1.02-.34-.43-.53-.96-.53-1.54v-31.84C0,68.6,7.74,54.37,20.51,45.96c1.35-.89,2.71-1.78,4.07-2.66,10.69-5.37,21.31-8.86,25.83-10.79,9.19-3.93,25.43-7.08,34.11-.08Z" fill="url(#d)"/></g></svg>