<?xml version="1.0" encoding="UTF-8"?><svg id="b" xmlns="http://www.w3.org/2000/svg" xmlns:xlink="http://www.w3.org/1999/xlink" viewBox="0 0 457.76 264.58"><defs><linearGradient id="d" x1="168.26" y1="27.48" x2="168.26" y2="65.7" gradientUnits="userSpaceOnUse"><stop offset="0" stop-color="#878787"/><stop offset="1" stop-color="#fff"/></linearGradient></defs><g id="c"><path d="M40.44,162.87c4.67-6.44,11.93-10.14,19.88-10.14h9.14c7.93,0,15.19,3.67,19.85,10.1l40.25,55.46c.26.36.29.8.09,1.2-.2.39-.58.63-1.02.63h-17.39c-.38,0-.71-.17-.93-.48l-35.67-49.15c-1.59-2.19-3.92-3.38-6.63-3.38h-6.24c-2.71,0-5.04,1.19-6.63,3.38l-35.67,49.15c-.22.31-.55.48-.93.48H1.15c-.44,0-.82-.23-1.02-.63-.2-.39-.17-.84.09-1.2l40.22-55.42Z" fill="#fff"/><path d="M147.49,167.12h-36.57c-.63,0-1.15-.52-1.15-1.15v-12.08c0-.63.52-1.15,1.15-1.15h91.68c.63,0,1.15.52,1.15,1.15v12.08c0,.63-.52,1.15-1.15,1.15h-37.66v51.86c0,.63-.52,1.15-1.15,1.15h-14.07c-.63,0-1.15-.52-1.15-1.15v-51.86h-1.08Z" fill="#fff"/><path d="M250.56,198.81v-12.12c0-.63.52-1.15,1.15-1.15h37.37c2.66,0,4.83-2.17,4.83-4.83v-8.75c0-2.66-2.17-4.83-4.83-4.83h-54.89v51.86c0,.63-.52,1.15-1.15,1.15h-14.07c-.63,0-1.15-.52-1.15-1.15v-65.09c0-.63.52-1.15,1.15-1.15h74.46c9.27,0,16.86,7.59,16.86,16.86v13.49c0,7.14-4.56,13.53-11.29,15.91-.66.23-1.33.42-2.01.57l-.8.17,2.52,2.98c1.78,1.96,4.12,2.97,6.76,2.97h3.66c.63,0,1.15.52,1.15,1.15v12.13c0,.63-.52,1.15-1.15,1.15h-9.47c-4.96,0-9.28-1.91-12.57-5.62,0,0-.01-.02-.02-.03l-8.45-10.07-.02-.02s-.05-.06-.08-.09l-1.42-1.69-.05-.04c-.06-.04-.11-.08-.16-.13-1.73-1.67-3.9-2.49-6.3-2.49h-18.89c-.63,0-1.15-.52-1.15-1.15Z" fill="#fff"/><path d="M325.44,152.73h14.07c.63,0,1.15.52,1.15,1.15v65.09c0,.63-.52,1.15-1.15,1.15h-14.07c-.63,0-1.15-.52-1.15-1.15v-65.09c0-.63.52-1.15,1.15-1.15Z" fill="#fff"/><path d="M354.74,153.89c0-.63.52-1.15,1.15-1.15h9.47c5.13,0,9.57,2.03,12.87,5.97l9.73,11.59.04.03c.07.05.13.11.18.17l5.1,6.08.05.04c.06.04.11.08.16.13,1.71,1.64,3.84,2.49,6.22,2.49h13.08c2.37,0,4.5-.85,6.21-2.49.05-.05.1-.09.16-.13l.05-.04,5.1-6.08c.05-.06.11-.12.18-.17l.04-.03,9.73-11.59c3.3-3.94,7.74-5.97,12.87-5.97h9.47c.63,0,1.15.52,1.15,1.15v12.08c0,.63-.52,1.15-1.15,1.15h-3.72c-2.65,0-4.98,1.01-6.76,2.97l-13.83,16.34,13.83,16.34c1.78,1.96,4.11,2.97,6.76,2.97h3.72c.63,0,1.15.52,1.15,1.15v12.08c0,.63-.52,1.15-1.15,1.15h-9.47c-5.13,0-9.57-2.03-12.87-5.97l-9.73-11.59-.04-.03c-.06-.05-.12-.11-.18-.17l-5.1-6.08-.05-.04c-.06-.04-.11-.08-.16-.13-1.71-1.64-3.84-2.49-6.21-2.49h-13.08c-2.37,0-4.51.85-6.22,2.49-.05.05-.1.09-.16.13l-.05.04-5.1,6.08c-.05.06-.11.12-.18.17l-.04.03-9.73,11.59c-3.3,3.94-7.74,5.97-12.87,5.97h-9.47c-.63,0-1.15-.52-1.15-1.15v-12.08c0-.63.52-1.15,1.15-1.15h3.72c2.65,0,4.98-1.01,6.76-2.97l13.83-16.34-13.83-16.34c-1.78-1.96-4.11-2.97-6.76-2.97h-3.72c-.63,0-1.15-.52-1.15-1.15v-12.08Z" fill="#fff"/><path d="M68.41,240.32h6.59v23.79h-6.59v-23.79Z" fill="#fff"/><path d="M91.96,246.09h-7.1v-5.78h20.83v5.78h-7.14v18.01h-6.59v-18.01Z" fill="#fff"/><path d="M130.55,260.57l3.67-4.38c2.41,1.9,4.99,2.85,7.71,2.85,1.8,0,2.75-.58,2.75-1.63v-.07c0-1.02-.78-1.5-4.04-2.31-5.03-1.16-8.97-2.55-8.97-7.44v-.07c0-4.45,3.5-7.61,9.21-7.61,4.08,0,7.21,1.09,9.79,3.16l-3.29,4.66c-2.18-1.6-4.52-2.35-6.66-2.35-1.6,0-2.38.61-2.38,1.53v.07c0,1.05.82,1.6,4.15,2.31,5.44,1.19,8.84,2.96,8.84,7.41v.07c0,4.86-3.84,7.75-9.62,7.75-4.25,0-8.16-1.33-11.15-3.94Z" fill="#fff"/><path d="M160.52,252.28v-.07c0-6.83,5.51-12.37,12.85-12.37s12.78,5.51,12.78,12.3v.07c0,6.83-5.51,12.37-12.85,12.37s-12.78-5.51-12.78-12.3ZM179.38,252.28v-.07c0-3.47-2.45-6.42-6.08-6.42s-6.05,2.92-6.05,6.36v.07c0,3.4,2.48,6.42,6.12,6.42s6.01-2.92,6.01-6.36Z" fill="#fff"/><path d="M196.33,240.32h6.59v18.01h11.52v5.78h-18.12v-23.79Z" fill="#fff"/><path d="M223.14,253.67v-13.36h6.66v13.22c0,3.43,1.7,5.06,4.39,5.06s4.42-1.53,4.42-4.89v-13.39h6.66v13.19c0,7.65-4.38,11.05-11.15,11.05s-10.98-3.4-10.98-10.88Z" fill="#fff"/><path d="M261.77,246.09h-7.1v-5.78h20.83v5.78h-7.14v18.01h-6.59v-18.01Z" fill="#fff"/><path d="M285.34,240.32h6.59v23.79h-6.59v-23.79Z" fill="#fff"/><path d="M302.3,252.28v-.07c0-6.83,5.51-12.37,12.85-12.37s12.78,5.51,12.78,12.3v.07c0,6.83-5.51,12.37-12.85,12.37s-12.78-5.51-12.78-12.3ZM321.16,252.28v-.07c0-3.47-2.45-6.42-6.08-6.42s-6.05,2.92-6.05,6.36v.07c0,3.4,2.48,6.42,6.12,6.42s6.01-2.92,6.01-6.36Z" fill="#fff"/><path d="M338.11,240.32h6.15l9.79,12.58v-12.58h6.53v23.79h-5.75l-10.2-13.05v13.05h-6.53v-23.79Z" fill="#fff"/><path d="M369.77,260.57l3.67-4.38c2.41,1.9,4.99,2.85,7.71,2.85,1.8,0,2.75-.58,2.75-1.63v-.07c0-1.02-.78-1.5-4.04-2.31-5.03-1.16-8.97-2.55-8.97-7.44v-.07c0-4.45,3.5-7.61,9.21-7.61,4.08,0,7.21,1.09,9.79,3.16l-3.29,4.66c-2.18-1.6-4.52-2.35-6.66-2.35-1.6,0-2.38.61-2.38,1.53v.07c0,1.05.82,1.6,4.15,2.31,5.44,1.19,8.84,2.96,8.84,7.41v.07c0,4.86-3.84,7.75-9.62,7.75-4.25,0-8.16-1.33-11.15-3.94Z" fill="#fff"/><path d="M331.76,57.78v72.18l-119.78-96.52c-3.95-3.19-9.24-3.32-13.86-1.22-1.51.69-2.92,1.47-4.32,2.38-3.83,2.46-6.48,6.39-6.48,10.95v70.2c0,1.42-1.15,2.55-2.55,2.55h-56.21c-.84,0-1.58-.4-2.04-1.02-.34-.43-.53-.96-.53-1.53v-31.85c0-15.29,7.75-29.51,20.51-37.93,24.6-16.25,49.55-30.53,75.67-41.79,17.21-7.42,37.08-4.83,51.66,6.92l57.92,46.69Z" fill="#fff"/><path d="M210.52,32.43c-3.73-2.18-8.33-2.07-12.39-.22-1.51.69-2.92,1.47-4.33,2.38-3.83,2.46-6.48,6.39-6.48,10.95v70.19c0,1.42-1.15,2.56-2.55,2.56h-56.21c-.84,0-1.58-.4-2.03-1.02-.34-.43-.53-.96-.53-1.54v-31.84c0-15.29,7.74-29.52,20.51-37.93,1.35-.89,2.71-1.78,4.07-2.66,10.69-5.37,21.31-8.86,25.83-10.79,9.19-3.93,25.43-7.08,34.11-.08Z" fill="url(#d)"/></g></svg>