<?xml version="1.0" encoding="UTF-8"?>
<svg id="b" xmlns="http://www.w3.org/2000/svg" version="1.1" viewBox="0 0 457.8 264.6">
  <!-- Generator: Adobe Illustrator 29.7.1, SVG Export Plug-In . SVG Version: 2.1.1 Build 8)  -->
  <defs>
    <style>
      .st0 {
        fill: #fff;
      }
    </style>
  </defs>
  <path class="st0" d="M40.4,162.9c4.7-6.4,11.9-10.1,19.9-10.1h9.1c7.9,0,15.2,3.7,19.8,10.1l40.2,55.5c.3.4.3.8,0,1.2-.2.4-.6.6-1,.6h-17.4c-.4,0-.7-.2-.9-.5l-35.7-49.1c-1.6-2.2-3.9-3.4-6.6-3.4h-6.2c-2.7,0-5,1.2-6.6,3.4l-35.7,49.1c-.2.3-.5.5-.9.5H1.1c-.4,0-.8-.2-1-.6-.2-.4-.2-.8,0-1.2l40.2-55.4h0Z"/>
  <path class="st0" d="M147.5,167.1h-36.6c-.6,0-1.2-.5-1.2-1.1v-12.1c0-.6.5-1.1,1.2-1.1h91.7c.6,0,1.1.5,1.1,1.1v12.1c0,.6-.5,1.1-1.1,1.1h-37.7v51.9c0,.6-.5,1.1-1.1,1.1h-14.1c-.6,0-1.1-.5-1.1-1.1v-51.9h-1.1Z"/>
  <path class="st0" d="M250.6,198.8v-12.1c0-.6.5-1.1,1.1-1.1h37.4c2.7,0,4.8-2.2,4.8-4.8v-8.8c0-2.7-2.2-4.8-4.8-4.8h-54.9v51.9c0,.6-.5,1.1-1.1,1.1h-14.1c-.6,0-1.1-.5-1.1-1.1v-65.1c0-.6.5-1.1,1.1-1.1h74.5c9.3,0,16.9,7.6,16.9,16.9v13.5c0,7.1-4.6,13.5-11.3,15.9-.7.2-1.3.4-2,.6l-.8.2,2.5,3c1.8,2,4.1,3,6.8,3h3.7c.6,0,1.1.5,1.1,1.1v12.1c0,.6-.5,1.1-1.1,1.1h-9.5c-5,0-9.3-1.9-12.6-5.6,0,0,0,0,0,0l-8.5-10.1h0s0,0,0-.1l-1.4-1.7h0c0,0-.1-.1-.2-.2-1.7-1.7-3.9-2.5-6.3-2.5h-18.9c-.6,0-1.1-.5-1.1-1.1h0Z"/>
  <path class="st0" d="M325.4,152.7h14.1c.6,0,1.1.5,1.1,1.1v65.1c0,.6-.5,1.1-1.1,1.1h-14.1c-.6,0-1.1-.5-1.1-1.1v-65.1c0-.6.5-1.1,1.1-1.1Z"/>
  <path class="st0" d="M354.7,153.9c0-.6.5-1.1,1.1-1.1h9.5c5.1,0,9.6,2,12.9,6l9.7,11.6h0c0,0,.1.1.2.2l5.1,6.1h0c0,0,.1.1.2.2,1.7,1.6,3.8,2.5,6.2,2.5h13.1c2.4,0,4.5-.9,6.2-2.5,0,0,.1,0,.2-.1h0s5.1-6.1,5.1-6.1c0,0,.1-.1.2-.2h0s9.7-11.6,9.7-11.6c3.3-3.9,7.7-6,12.9-6h9.5c.6,0,1.1.5,1.1,1.1v12.1c0,.6-.5,1.1-1.1,1.1h-3.7c-2.6,0-5,1-6.8,3l-13.8,16.3,13.8,16.3c1.8,2,4.1,3,6.8,3h3.7c.6,0,1.1.5,1.1,1.1v12.1c0,.6-.5,1.1-1.1,1.1h-9.5c-5.1,0-9.6-2-12.9-6l-9.7-11.6h0c0,0-.1-.1-.2-.2l-5.1-6.1h0c0,0-.1-.1-.2-.2-1.7-1.6-3.8-2.5-6.2-2.5h-13.1c-2.4,0-4.5.9-6.2,2.5,0,0-.1,0-.2.1h0s-5.1,6.1-5.1,6.1c0,0-.1.1-.2.2h0s-9.7,11.6-9.7,11.6c-3.3,3.9-7.7,6-12.9,6h-9.5c-.6,0-1.1-.5-1.1-1.1v-12.1c0-.6.5-1.1,1.1-1.1h3.7c2.6,0,5-1,6.8-3l13.8-16.3-13.8-16.3c-1.8-2-4.1-3-6.8-3h-3.7c-.6,0-1.1-.5-1.1-1.1v-12.1Z"/>
</svg>