<?xml version="1.0" encoding="UTF-8"?>
<svg id="b" xmlns="http://www.w3.org/2000/svg" version="1.1" viewBox="0 0 457.8 264.6">
  <!-- Generator: Adobe Illustrator 29.7.1, SVG Export Plug-In . SVG Version: 2.1.1 Build 8)  -->
  <defs>
    <style>
      .st0 {
        fill: #fff;
      }
    </style>
  </defs>
  <path class="st0" d="M68.4,240.3h6.6v23.8h-6.6v-23.8Z"/>
  <path class="st0" d="M92,246.1h-7.1v-5.8h20.8v5.8h-7.1v18h-6.6v-18h0Z"/>
  <path class="st0" d="M130.6,260.6l3.7-4.4c2.4,1.9,5,2.9,7.7,2.9s2.8-.6,2.8-1.6h0c0-1.1-.8-1.6-4-2.4-5-1.2-9-2.6-9-7.4h0c0-4.5,3.5-7.7,9.2-7.7s7.2,1.1,9.8,3.2l-3.3,4.7c-2.2-1.6-4.5-2.4-6.7-2.4s-2.4.6-2.4,1.5h0c0,1.1.8,1.7,4.1,2.4,5.4,1.2,8.8,3,8.8,7.4h0c0,4.9-3.8,7.8-9.6,7.8s-8.2-1.3-11.1-3.9h0Z"/>
  <path class="st0" d="M160.5,252.3h0c0-6.9,5.5-12.4,12.9-12.4s12.8,5.5,12.8,12.3h0c0,6.9-5.5,12.4-12.9,12.4s-12.8-5.5-12.8-12.3h0ZM179.4,252.3h0c0-3.5-2.4-6.5-6.1-6.5s-6.1,2.9-6.1,6.4h0c0,3.5,2.5,6.5,6.1,6.5s6-2.9,6-6.4h0Z"/>
  <path class="st0" d="M196.3,240.3h6.6v18h11.5v5.8h-18.1v-23.8h0Z"/>
  <path class="st0" d="M223.1,253.7v-13.4h6.7v13.2c0,3.4,1.7,5.1,4.4,5.1s4.4-1.5,4.4-4.9v-13.4h6.7v13.2c0,7.6-4.4,11-11.1,11s-11-3.4-11-10.9h0Z"/>
  <path class="st0" d="M261.8,246.1h-7.1v-5.8h20.8v5.8h-7.1v18h-6.6v-18h0Z"/>
  <path class="st0" d="M285.3,240.3h6.6v23.8h-6.6v-23.8Z"/>
  <path class="st0" d="M302.3,252.3h0c0-6.9,5.5-12.4,12.9-12.4s12.8,5.5,12.8,12.3h0c0,6.9-5.5,12.4-12.9,12.4s-12.8-5.5-12.8-12.3h0ZM321.2,252.3h0c0-3.5-2.5-6.5-6.1-6.5s-6,2.9-6,6.4h0c0,3.5,2.5,6.5,6.1,6.5s6-2.9,6-6.4h0Z"/>
  <path class="st0" d="M338.1,240.3h6.1l9.8,12.6v-12.6h6.5v23.8h-5.8l-10.2-13.1v13.1h-6.5v-23.8h0Z"/>
</svg>