<?xml version="1.0" encoding="UTF-8"?><svg id="b" xmlns="http://www.w3.org/2000/svg" xmlns:xlink="http://www.w3.org/1999/xlink" viewBox="0 0 438.37 88.07"><defs><linearGradient id="d" x1="28.64" y1="18.62" x2="28.64" y2="44.52" gradientUnits="userSpaceOnUse"><stop offset="0" stop-color="#878787"/><stop offset="1" stop-color="#fff"/></linearGradient></defs><g id="c"><path d="M182.47,25.69c2.86-3.95,7.32-6.22,12.19-6.22h5.6c4.86,0,9.32,2.25,12.17,6.19l24.68,34.01c.16.22.18.49.06.73-.12.24-.36.38-.63.38h-10.66c-.23,0-.43-.1-.57-.29l-21.87-30.14c-.98-1.35-2.41-2.07-4.07-2.07h-3.82c-1.66,0-3.09.73-4.07,2.07l-21.87,30.14c-.14.19-.34.29-.57.29h-10.66c-.27,0-.5-.14-.63-.38-.12-.24-.1-.51.06-.73l24.66-33.98Z" fill="#fff"/><path d="M248.11,28.3h-22.43c-.39,0-.7-.32-.7-.7v-7.41c0-.39.32-.7.7-.7h56.22c.39,0,.71.32.71.7v7.41c0,.39-.32.7-.71.7h-23.09v31.8c0,.39-.32.7-.7.7h-8.63c-.39,0-.7-.32-.7-.7v-31.8h-.67Z" fill="#fff"/><path d="M311.32,47.73v-7.43c0-.39.32-.7.7-.7h22.92c1.63,0,2.96-1.33,2.96-2.96v-5.37c0-1.63-1.33-2.96-2.96-2.96h-33.66v31.8c0,.39-.32.7-.7.7h-8.63c-.39,0-.7-.32-.7-.7V20.19c0-.39.32-.7.7-.7h45.66c5.69,0,10.34,4.65,10.34,10.34v8.27c0,4.38-2.8,8.3-6.92,9.76-.4.14-.81.26-1.23.35l-.49.11,1.55,1.83c1.09,1.2,2.52,1.82,4.15,1.82h2.24c.39,0,.7.32.7.7v7.44c0,.39-.32.7-.7.7h-5.81c-3.04,0-5.69-1.17-7.71-3.45,0,0,0,0-.01-.02l-5.18-6.17h-.01s-.03-.05-.05-.06l-.87-1.04-.03-.02s-.07-.05-.1-.08c-1.06-1.02-2.39-1.53-3.86-1.53h-11.58c-.39,0-.7-.32-.7-.7Z" fill="#fff"/><path d="M357.24,19.47h8.63c.39,0,.7.32.7.7v39.91c0,.39-.32.7-.7.7h-8.63c-.39,0-.7-.32-.7-.7V20.18c0-.39.32-.7.7-.7Z" fill="#fff"/><path d="M375.2,20.19c0-.39.32-.7.7-.7h5.81c3.15,0,5.87,1.24,7.89,3.66l5.97,7.11.02.02s.08.07.11.11l3.13,3.73.03.02s.07.05.1.08c1.05,1.01,2.36,1.53,3.81,1.53h8.02c1.45,0,2.76-.52,3.81-1.53.03-.03.06-.06.1-.08l.03-.02,3.13-3.73s.07-.08.11-.11l.02-.02,5.97-7.11c2.03-2.42,4.75-3.66,7.89-3.66h5.81c.39,0,.7.32.7.7v7.41c0,.39-.32.7-.7.7h-2.28c-1.62,0-3.05.62-4.15,1.82l-8.48,10.02,8.48,10.02c1.09,1.2,2.52,1.82,4.15,1.82h2.28c.39,0,.7.32.7.7v7.41c0,.39-.32.7-.7.7h-5.81c-3.15,0-5.87-1.24-7.89-3.66l-5.97-7.11-.02-.02s-.08-.07-.11-.11l-3.13-3.73-.03-.02s-.07-.05-.1-.08c-1.05-1.01-2.36-1.53-3.81-1.53h-8.02c-1.45,0-2.76.52-3.81,1.53-.03.03-.06.06-.1.08l-.03.02-3.13,3.73s-.07.08-.11.11l-.02.02-5.97,7.11c-2.03,2.42-4.75,3.66-7.89,3.66h-5.81c-.39,0-.7-.32-.7-.7v-7.41c0-.39.32-.7.7-.7h2.28c1.62,0,3.05-.62,4.15-1.82l8.48-10.02-8.48-10.02c-1.09-1.2-2.52-1.82-4.15-1.82h-2.28c-.39,0-.7-.32-.7-.7v-7.41Z" fill="#fff"/><path d="M159.44,72.47h4.24v15.29h-4.24v-15.29Z" fill="#fff"/><path d="M174.58,76.19h-4.56v-3.71h13.39v3.71h-4.59v11.58h-4.24v-11.58Z" fill="#fff"/><path d="M199.4,85.49l2.36-2.82c1.55,1.22,3.21,1.83,4.96,1.83,1.16,0,1.77-.37,1.77-1.05v-.04c0-.66-.5-.96-2.6-1.49-3.23-.74-5.77-1.64-5.77-4.78v-.04c0-2.86,2.25-4.89,5.92-4.89,2.62,0,4.63.7,6.29,2.03l-2.12,2.99c-1.4-1.03-2.9-1.51-4.28-1.51-1.03,0-1.53.39-1.53.98v.04c0,.68.52,1.03,2.66,1.48,3.5.76,5.68,1.9,5.68,4.76v.04c0,3.12-2.47,4.98-6.18,4.98-2.73,0-5.24-.85-7.16-2.53Z" fill="#fff"/><path d="M218.67,80.16v-.04c0-4.39,3.54-7.95,8.26-7.95s8.21,3.54,8.21,7.91v.04c0,4.39-3.54,7.95-8.26,7.95s-8.21-3.54-8.21-7.91ZM230.79,80.16v-.04c0-2.23-1.57-4.13-3.91-4.13s-3.89,1.88-3.89,4.08v.04c0,2.18,1.59,4.13,3.93,4.13s3.87-1.88,3.87-4.08Z" fill="#fff"/><path d="M241.69,72.47h4.24v11.58h7.4v3.71h-11.64v-15.29Z" fill="#fff"/><path d="M258.93,81.06v-8.58h4.28v8.5c0,2.21,1.09,3.25,2.82,3.25s2.84-.98,2.84-3.14v-8.61h4.28v8.48c0,4.91-2.82,7.1-7.16,7.1s-7.05-2.18-7.05-6.99Z" fill="#fff"/><path d="M283.77,76.19h-4.56v-3.71h13.39v3.71h-4.59v11.58h-4.24v-11.58Z" fill="#fff"/><path d="M298.94,72.47h4.24v15.29h-4.24v-15.29Z" fill="#fff"/><path d="M309.84,80.16v-.04c0-4.39,3.54-7.95,8.26-7.95s8.21,3.54,8.21,7.91v.04c0,4.39-3.54,7.95-8.26,7.95s-8.21-3.54-8.21-7.91ZM321.96,80.16v-.04c0-2.23-1.57-4.13-3.91-4.13s-3.89,1.88-3.89,4.08v.04c0,2.18,1.59,4.13,3.93,4.13s3.87-1.88,3.87-4.08Z" fill="#fff"/><path d="M332.86,72.47h3.95l6.29,8.08v-8.08h4.19v15.29h-3.69l-6.55-8.39v8.39h-4.19v-15.29Z" fill="#fff"/><path d="M353.23,85.49l2.36-2.82c1.55,1.22,3.21,1.83,4.96,1.83,1.16,0,1.77-.37,1.77-1.05v-.04c0-.66-.5-.96-2.6-1.49-3.23-.74-5.77-1.64-5.77-4.78v-.04c0-2.86,2.25-4.89,5.92-4.89,2.62,0,4.63.7,6.29,2.03l-2.12,2.99c-1.4-1.03-2.9-1.51-4.28-1.51-1.03,0-1.53.39-1.53.98v.04c0,.68.52,1.03,2.66,1.48,3.5.76,5.68,1.9,5.68,4.76v.04c0,3.12-2.47,4.98-6.18,4.98-2.73,0-5.24-.85-7.16-2.53Z" fill="#fff"/><path d="M1.74,80.16H0l.36-.69c.31.42.81.69,1.38.69Z" fill="#fff"/><path d="M41.56,78.43v1.73h-1.73c.95,0,1.73-.77,1.73-1.73Z" fill="#fff"/><path d="M139.44,39.16v48.91L58.27,22.66c-2.68-2.16-6.26-2.25-9.39-.83-1.02.46-1.98,1-2.93,1.61-2.6,1.67-4.39,4.33-4.39,7.42v47.57c0,.96-.78,1.73-1.73,1.73H1.74c-.57,0-1.07-.27-1.38-.69C.13,79.18,0,78.82,0,78.43v-21.58C0,46.49,5.25,36.85,13.9,31.15,30.57,20.14,47.48,10.46,65.18,2.83c11.66-5.03,25.13-3.27,35.01,4.69l39.25,31.64Z" fill="#fff"/><path d="M57.28,21.97c-2.53-1.48-5.64-1.4-8.4-.15-1.02.47-1.98,1-2.93,1.61-2.6,1.67-4.39,4.33-4.39,7.42v47.56c0,.96-.78,1.73-1.73,1.73H1.74c-.57,0-1.07-.27-1.38-.69-.23-.29-.36-.65-.36-1.04v-21.58C0,46.49,5.25,36.84,13.9,31.14c.91-.6,1.84-1.21,2.76-1.8,7.24-3.64,14.44-6,17.5-7.31,6.23-2.66,17.23-4.8,23.11-.05Z" fill="url(#d)"/></g></svg>