<?xml version="1.0" encoding="UTF-8"?><svg id="Layer_2" xmlns="http://www.w3.org/2000/svg" viewBox="0 0 383.18 328.28"><g id="Layer_4"><path d="M0,99.86C7.73,19.97,96.5-26.74,166.11,16.46c9.87,6.13,17.37,13.61,25.79,21.22,44.13-49.79,121.24-50.04,165.17.41,39.66,45.54,33.01,115.71-12.35,154.61-18.49,14.72-34.78,35.76-53.18,50.11-5.07,3.95-10.5,5.18-16.74,6.09-.3,14.31-11.74,26.35-26.18,26.22-1.18,15.32-11.53,25.98-26.97,26.93-.93,22.38-25.03,34.24-43.11,20.11-7.16-5.59-45.77-44.24-48.97-50.59-.52-1.03-.86-2.12-.83-3.29-18.26,10.26-41.63-.59-41.16-22.46-15.29.29-26.74-11.82-26.96-26.94-11.64,1.03-23.79-8.77-25.86-20.18-.57-3.18.3-8.25-.73-10.5-.58-1.27-4.67-4.46-5.99-5.99C12.69,164.23,1.81,141.8,0,117.83v-17.96ZM100.15,15.5c-17.72,1.45-35.29,8.79-49.18,19.69C6.92,69.78,2.75,134.43,41.54,174.7l105.52-105.55c3.14-3.12,7.26-4.13,10.9-1.13l41.37,40.97c15.19,9.27,30.6-8.45,19.96-22.21C182.5,51.94,157.76,10.78,100.15,15.5ZM299.42,213.64c1.14.3,1.24-.31,1.88-.74,1.55-1.07,5.41-4.8,7.11-6.36,37.25-34.24,70.52-63.32,57.12-120.02C347.93,12.01,251.06-9.3,202.12,48.59c8.94,11.43,29.72,24.74,34.21,38.38,9.36,28.41-24.27,51.63-47.71,32.74l-35.55-35.55-99.2,99.15c-11.05,10.89-.24,26.38,13.44,18.68l74.14-74.07c6.92-6.54,16.27.84,12.01,9.02l-74.87,74.83c-8.47,10.72,3.45,23.93,14.93,17.18l76.11-75.85c7.72-3.98,15.32,4.38,9.65,11.15l-74.06,74.15c-8.79,11.38,4.58,24.87,16.05,16.05,9.91-7.63,16.86-22.49,32.17-20.6-.46-14.98,11.97-27.41,26.95-26.95-1.26-14.2,12-27.46,26.2-26.2-.14-22.61,24.83-35.16,43.02-20.95,13.4,15.63,32.98,29.88,45.69,45.63,1.88,2.33,3.95,5.17,4.11,8.24ZM230.34,168.9c-9,1.85-10.99,12.04-5.76,18.9,11.29,14.81,31.2,28.73,43.45,43.38,11.66,7.86,23.86-5.46,15.67-16.41-14.54-11.77-28.5-32.23-43.04-43.04-3.08-2.29-6.42-3.62-10.31-2.82ZM202.64,195.83c-7.33,1.65-9.72,12.72-5.02,18.18,15.73,14.87,29.96,31.78,46.74,45.33,11.93,3.69,20.02-8.31,12.37-18.36-11.21-14.7-30.95-28.42-43.03-43.06-2.85-2.43-7.51-2.89-11.07-2.09ZM177.2,222.04c-9,1.85-10.99,12.04-5.76,18.9,11.29,14.81,31.2,28.73,43.45,43.38,11.66,7.86,23.86-5.46,15.67-16.41-14.54-11.77-28.5-32.23-43.04-43.04-3.08-2.29-6.42-3.62-10.31-2.82ZM149.49,248.98c-7.33,1.65-9.72,12.72-5.02,18.18,15.73,14.87,29.96,31.78,46.74,45.33,11.93,3.69,20.02-8.31,12.37-18.36-11.21-14.7-30.95-28.42-43.03-43.06-2.85-2.43-7.51-2.89-11.07-2.09Z"/></g></svg>