<?xml version="1.0" encoding="UTF-8"?><svg id="Layer_2" xmlns="http://www.w3.org/2000/svg" viewBox="0 0 511.05 461.24"><g id="Layer_4"><path d="M511.05,338.44c-3.48,13.67-11.35,24.32-24.59,29.8-64.31,24.61-127.75,60.86-192,84.46-34.84,12.8-71.18,11.36-104.47-5.29-30.1-15.06-57.44-42.28-92.14-44.65-4.44,9.63-13.63,17.41-24.45,18.5-20.39,2.06-44.05-1.46-64.8-.05-5.4-1-8.51-4.96-8.6-10.36l.03-179.72c.18-4.19,4.65-8.78,8.56-9.4,20.64,1.65,45.42-2.53,65.56.2,11.26,1.52,20.05,9.58,24.38,19.74,24.08,1.19,49.85-1.72,73.73-.08,31.47,2.16,58.45,28.12,86.85,39.9,22.07,1.42,46.01-1.67,67.84.03,24.31,1.89,42.28,22.64,37.39,46.93l94.04-32.21c17.08-6.06,37.55-.54,46.86,15.58l5.82,14.64v11.98ZM20.01,401.32h52.4c1.91,0,6.82-4.52,7.01-6.96l.5-143.27c.81-2.8-5.72-9.46-7.51-9.46H20.01v159.69ZM99.86,382.35c50.08,3.94,83.3,50.81,132.41,57.72,16.16,2.28,30.75,1.37,46.46-3.11,64.17-29.3,132.89-54.35,196.08-85.37,11.79-5.79,20.98-12.79,14.48-27.81-7.51-17.36-29.35-6.68-41.88-2.58-38.77,12.68-77,27.18-115.76,39.94l-110.32.05c-10.45-4.16-9.86-16.79,1.02-19.52,33.78-2.7,71.27,2.78,104.6-.2,24.26-2.16,24.12-36.71.87-39.88-21.97-2.99-57.08,4.39-77.04-1.8s-57.58-38.21-76.57-38.21h-74.35v120.76Z"/><path d="M223.41.39c31.54-3.24,57.46,13.93,72.57,40.61,11.23-17.66,25.6-32.8,46.42-38.4,39.24-10.54,77.2,12.6,89.08,50.63,17.35,55.55-21.05,94.73-58.13,129.02-19.78,18.29-46.11,42.57-67.4,58.35-6.38,4.72-8.95,5.76-15.94,1.02-27.67-25.3-58.94-47.79-85.86-73.83-5.89-5.7-23.43-23.15-26.26-29.62-3.59-8.21,2.49-15.66,11.26-14.26,5.34.85,8.52,8.21,12.02,11.93,28.98,30.82,62.66,56.48,94.35,84.36l2.22.31c21.09-18.1,43.3-35.29,63.64-54.23,18.17-16.92,44.4-42.24,51.39-66.38,19.68-67.97-61.91-113.38-99.12-49.22-3.62,6.24-8.17,22.95-14.11,24.81-12.41,3.89-13.44-10.09-17.17-17.87-13.54-28.3-40.48-46.32-71.98-33.34-18.02,7.43-26.76,23.15-33.23,40.63-5.5,5.47-15.71,3.2-17.2-4.68-1.01-5.35,4.5-17.2,7.26-22.23C178.51,17.41,199.88,2.81,223.41.39Z"/><path d="M166.45,88.12c13.05-2.89,17.3,18.16,3.67,19.74s-15-17.24-3.67-19.74Z"/><path d="M47.68,261.78c13.05-2.89,17.3,18.16,3.67,19.74-13.37,1.55-15-17.24-3.67-19.74Z"/></g></svg>